<svg width="103" height="49" viewBox="0 0 103 49" fill="none" xmlns="http://www.w3.org/2000/svg">
<path d="M-6.2421e-05 31.044C-6.2421e-05 28.86 0.519938 26.6933 1.55994 24.544C2.59994 22.3947 4.0386 20.4707 5.87594 18.772C7.81727 16.9347 10.2266 16.016 13.1039 16.016C14.3519 16.016 15.4093 16.38 16.2759 17.108C17.1773 17.836 17.6279 18.7547 17.6279 19.864C17.6279 20.7307 17.4199 21.5627 17.0039 22.36C16.5879 23.1227 16.0679 23.764 15.4439 24.284C14.8199 24.804 14.2653 25.22 13.7799 25.532C13.3293 25.8093 12.9306 26.0173 12.5839 26.156C10.5733 27.0573 7.85194 27.5253 4.41994 27.56C3.8306 27.56 3.53594 28.2707 3.53594 29.692C3.53594 31.7027 4.15994 33.2973 5.40794 34.476C6.65594 35.62 8.52794 36.192 11.0239 36.192C11.8906 36.192 12.7399 36.0013 13.5719 35.62C14.4386 35.2387 15.1319 34.8747 15.6519 34.528C16.2066 34.1467 16.5359 33.956 16.6399 33.956C17.0559 33.956 17.2639 34.1293 17.2639 34.476C17.2639 35.204 16.2586 36.192 14.2479 37.44C12.2719 38.688 10.2613 39.312 8.21594 39.312C5.1306 39.312 2.98127 38.584 1.76794 37.128C0.589271 35.672 -6.2421e-05 33.644 -6.2421e-05 31.044ZM4.26394 25.636C4.26394 26.3293 4.41994 26.676 4.73194 26.676C7.19327 26.676 9.35994 25.9827 11.2319 24.596C13.1039 23.2093 14.0399 21.684 14.0399 20.02C14.0399 19.1533 13.7279 18.5293 13.1039 18.148C12.5146 17.7667 11.9079 17.576 11.2839 17.576C10.0013 17.576 8.57994 18.3907 7.01994 20.02C6.3266 20.748 5.68527 21.7533 5.09594 23.036C4.54127 24.3187 4.26394 25.1853 4.26394 25.636ZM17.1258 47.008C17.1258 46.4533 17.2298 45.708 17.4378 44.772C17.6458 43.836 17.9751 43.368 18.4258 43.368C18.7031 43.368 19.0498 43.8013 19.4658 44.668C19.8818 45.5347 20.2805 45.968 20.6618 45.968C21.0431 45.968 21.3725 45.708 21.6498 45.188C21.9271 44.7027 22.1351 43.992 22.2738 43.056C22.4471 42.1547 22.5685 41.2707 22.6378 40.404C22.7418 39.572 22.8458 38.6187 22.9498 37.544C23.0538 36.4347 23.1405 35.6373 23.2098 35.152C24.5965 25.064 25.2898 19.8293 25.2898 19.448C25.2898 19.1707 25.1338 19.032 24.8218 19.032C24.1631 19.032 23.4871 19.0667 22.7938 19.136C22.1005 19.1707 21.6845 19.188 21.5458 19.188C20.7138 19.188 20.2978 18.876 20.2978 18.252C20.2978 17.836 20.3845 17.5587 20.5578 17.42C20.7311 17.2467 21.0951 17.16 21.6498 17.16C23.3485 17.2293 24.5791 17.264 25.3418 17.264H25.4458C25.6191 17.264 25.7578 16.8307 25.8618 15.964C25.9658 15.0973 26.2605 13.78 26.7458 12.012C27.2658 10.2093 28.0285 8.44132 29.0338 6.70799C30.0391 5.07865 31.3565 3.55332 32.9858 2.13199C34.6498 0.710654 36.5218 -1.26362e-05 38.6018 -1.26362e-05C38.7405 -1.26362e-05 39.0178 0.0346536 39.4338 0.103986C39.8845 0.138652 40.1618 0.155985 40.2658 0.155985C40.5085 0.155985 40.7338 0.138652 40.9418 0.103986C41.1845 0.0346536 41.3925 -1.26362e-05 41.5658 -1.26362e-05C42.1551 -1.26362e-05 42.5365 0.0693208 42.7098 0.207988C42.8831 0.346653 42.9698 0.571985 42.9698 0.883985C42.9698 1.68132 42.9351 2.25332 42.8658 2.59999C42.8311 2.91199 42.7271 3.44932 42.5538 4.21199C42.3805 4.97465 42.2071 5.99732 42.0338 7.27999L40.3698 19.136C39.1218 28.1493 38.4978 33.1587 38.4978 34.164C38.4978 34.6493 38.5498 35.0133 38.6538 35.256C38.7925 35.464 38.9138 35.5853 39.0178 35.62C39.1218 35.6547 39.2951 35.672 39.5378 35.672C40.2658 35.672 40.9245 35.3947 41.5138 34.84C42.1378 34.2507 42.6405 33.6613 43.0218 33.072C43.4031 32.4827 43.6805 32.188 43.8538 32.188C44.2698 32.188 44.4778 32.396 44.4778 32.812C44.4778 33.5053 43.6111 34.7013 41.8778 36.4C40.1791 38.0987 38.6018 38.948 37.1458 38.948C36.3831 38.948 35.8805 38.6533 35.6378 38.064C35.4298 37.44 35.3258 36.5387 35.3258 35.36V34.372C35.3258 31.7027 35.9325 26.5893 37.1458 19.032C38.6018 9.77599 39.3298 4.85332 39.3298 4.26399C39.3298 3.01599 38.4111 2.39199 36.5738 2.39199C35.2911 2.39199 34.1125 3.03332 33.0378 4.31599C31.9631 5.56399 31.1311 7.05465 30.5418 8.78799C29.9525 10.5213 29.5018 12.0987 29.1898 13.52C28.8778 14.9413 28.7218 15.964 28.7218 16.588C28.7218 16.9 28.7738 17.0907 28.8778 17.16C28.9818 17.2293 29.1725 17.264 29.4498 17.264C29.7965 17.264 30.4378 17.264 31.3738 17.264C32.3098 17.2293 33.0205 17.212 33.5058 17.212C34.1991 17.212 34.5458 17.4027 34.5458 17.784C34.5458 18.6853 34.2685 19.136 33.7138 19.136C32.8125 19.136 31.9285 19.1187 31.0618 19.084C30.1951 19.0493 29.5885 19.032 29.2418 19.032C29.0338 19.032 28.8778 19.0667 28.7738 19.136C28.6698 19.1707 28.5831 19.2573 28.5138 19.396C28.4445 19.5347 28.3925 19.6733 28.3578 19.812C28.3578 19.9507 28.3405 20.176 28.3058 20.488C28.2711 20.8 28.2365 21.0773 28.2018 21.32C28.0978 22.048 27.6645 25.8093 26.9018 32.604C26.2431 38.324 25.6538 41.756 25.1338 42.9C23.5045 46.3667 21.4071 48.1 18.8418 48.1C17.6978 48.1 17.1258 47.736 17.1258 47.008ZM47.3788 31.044C47.3788 28.86 47.8988 26.6933 48.9388 24.544C49.9788 22.3947 51.4175 20.4707 53.2548 18.772C55.1962 16.9347 57.6055 16.016 60.4828 16.016C61.7308 16.016 62.7882 16.38 63.6548 17.108C64.5562 17.836 65.0068 18.7547 65.0068 19.864C65.0068 20.7307 64.7988 21.5627 64.3828 22.36C63.9668 23.1227 63.4468 23.764 62.8228 24.284C62.1988 24.804 61.6442 25.22 61.1588 25.532C60.7082 25.8093 60.3095 26.0173 59.9628 26.156C57.9522 27.0573 55.2308 27.5253 51.7988 27.56C51.2095 27.56 50.9148 28.2707 50.9148 29.692C50.9148 31.7027 51.5388 33.2973 52.7868 34.476C54.0348 35.62 55.9068 36.192 58.4028 36.192C59.2695 36.192 60.1188 36.0013 60.9508 35.62C61.8175 35.2387 62.5108 34.8747 63.0308 34.528C63.5855 34.1467 63.9148 33.956 64.0188 33.956C64.4348 33.956 64.6428 34.1293 64.6428 34.476C64.6428 35.204 63.6375 36.192 61.6268 37.44C59.6508 38.688 57.6402 39.312 55.5948 39.312C52.5095 39.312 50.3602 38.584 49.1468 37.128C47.9682 35.672 47.3788 33.644 47.3788 31.044ZM51.6428 25.636C51.6428 26.3293 51.7988 26.676 52.1108 26.676C54.5722 26.676 56.7388 25.9827 58.6108 24.596C60.4828 23.2093 61.4188 21.684 61.4188 20.02C61.4188 19.1533 61.1068 18.5293 60.4828 18.148C59.8935 17.7667 59.2868 17.576 58.6628 17.576C57.3802 17.576 55.9588 18.3907 54.3988 20.02C53.7055 20.748 53.0642 21.7533 52.4748 23.036C51.9202 24.3187 51.6428 25.1853 51.6428 25.636ZM68.3007 30.94C68.3007 27.2307 69.6007 23.816 72.2007 20.696C74.8354 17.576 77.9381 16.016 81.5087 16.016C81.8554 16.016 82.3927 16.12 83.1207 16.328C83.8487 16.5013 84.6287 16.9 85.4607 17.524C86.2927 18.1133 86.7087 18.8587 86.7087 19.76C86.7087 20.28 86.5354 20.748 86.1887 21.164C85.8421 21.58 85.4434 21.788 84.9927 21.788C84.5074 21.788 84.0221 21.5973 83.5367 21.216C83.0861 20.8 82.6874 20.3667 82.3407 19.916C81.9941 19.4653 81.4914 19.0493 80.8327 18.668C80.2087 18.252 79.4807 18.044 78.6487 18.044C78.3714 18.044 77.8861 18.2173 77.1927 18.564C76.5341 18.876 75.8927 19.3093 75.2687 19.864C74.9221 20.176 74.5234 20.644 74.0727 21.268C73.6221 21.8573 73.1367 22.828 72.6167 24.18C72.0967 25.532 71.8367 26.9187 71.8367 28.34C71.8367 33.644 73.8821 36.296 77.9727 36.296C79.2207 36.296 80.3474 36.0707 81.3527 35.62C82.3927 35.1347 83.1901 34.6667 83.7447 34.216C84.3341 33.7307 84.7327 33.488 84.9407 33.488C85.3914 33.488 85.6167 33.7133 85.6167 34.164C85.6167 34.476 85.2527 35.0307 84.5247 35.828C83.7967 36.5907 82.6527 37.3707 81.0927 38.168C79.5327 38.9307 77.8861 39.312 76.1527 39.312C70.9181 39.312 68.3007 36.5213 68.3007 30.94ZM89.8791 18.408C89.8791 18.1307 90.0524 17.888 90.3991 17.68C90.7804 17.4373 91.3351 17.108 92.0631 16.692C92.8258 16.2413 93.5191 15.6867 94.1431 15.028C94.5591 14.5773 94.9578 14.1267 95.3391 13.676C95.7204 13.2253 95.9804 12.9133 96.1191 12.74C96.2924 12.5667 96.4484 12.428 96.5871 12.324C96.7604 12.22 96.9511 12.168 97.1591 12.168C97.5058 12.168 97.6791 12.376 97.6791 12.792C97.6791 13 97.5231 13.6413 97.2111 14.716C96.8991 15.756 96.7431 16.4147 96.7431 16.692C96.7431 16.8653 96.8298 16.9693 97.0031 17.004C97.2111 17.0387 97.7311 17.056 98.5631 17.056C99.3604 17.056 100.036 17.056 100.591 17.056C101.18 17.0213 101.51 17.004 101.579 17.004C102.48 17.004 102.931 17.3333 102.931 17.992C102.931 18.5813 102.844 18.98 102.671 19.188C102.498 19.396 102.168 19.5 101.683 19.5C101.44 19.5 100.782 19.4653 99.7071 19.396C98.6324 19.292 97.8871 19.24 97.4711 19.24C97.2631 19.24 97.0724 19.2573 96.8991 19.292C96.7604 19.3267 96.6391 19.396 96.5351 19.5C96.4311 19.604 96.3444 19.708 96.2751 19.812C96.2058 19.8813 96.1538 20.02 96.1191 20.228C96.0844 20.436 96.0498 20.6093 96.0151 20.748C95.9804 20.8867 95.9458 21.1293 95.9111 21.476C95.8764 21.8227 95.8418 22.1 95.8071 22.308C95.7031 23.14 95.4951 24.44 95.1831 26.208C94.9058 27.976 94.6631 29.5187 94.4551 30.836C94.2471 32.1187 94.1431 32.8813 94.1431 33.124C94.1431 33.956 94.3164 34.6147 94.6631 35.1C95.0444 35.5507 95.3564 35.8107 95.5991 35.88C95.8418 35.9493 96.0671 35.984 96.2751 35.984C97.1071 35.984 97.8698 35.7933 98.5631 35.412C99.2564 35.0307 99.8111 34.6493 100.227 34.268C100.643 33.8867 100.955 33.696 101.163 33.696C101.544 33.696 101.735 33.9387 101.735 34.424C101.735 35.1867 100.834 36.192 99.0311 37.44C97.2284 38.688 95.5818 39.312 94.0911 39.312C93.1898 39.312 92.4098 38.948 91.7511 38.22C91.0924 37.492 90.7631 36.2267 90.7631 34.424C90.7631 32.552 91.1271 29.692 91.8551 25.844C92.5831 21.996 92.9471 19.9853 92.9471 19.812C92.9471 19.4653 92.4271 19.2747 91.3871 19.24C90.3818 19.2053 89.8791 18.928 89.8791 18.408Z" fill="black"/>
</svg>
